<svg xmlns="http://www.w3.org/2000/svg" xmlns:xlink="http://www.w3.org/1999/xlink" width="2000" zoomAndPan="magnify" viewBox="0 0 1500 1499.999933" height="2000" preserveAspectRatio="xMidYMid meet" version="1.0"><defs><g/><clipPath id="c44edbb676"><path d="M 179.648438 0.417969 L 1293 0.417969 L 1293 1251 L 179.648438 1251 Z M 179.648438 0.417969 " clip-rule="nonzero"/></clipPath><clipPath id="bf9c048c78"><path d="M 763.042969 495.738281 L 1012.925781 495.738281 L 1012.925781 795.597656 L 763.042969 795.597656 Z M 763.042969 495.738281 " clip-rule="nonzero"/></clipPath><clipPath id="cf98470102"><rect x="0" width="1486" y="0" height="1461"/></clipPath></defs><g transform="matrix(1, 0, 0, 1, 14, 32)"><g clip-path="url(#cf98470102)"><g clip-path="url(#c44edbb676)"><path fill="#1e1e1e" d="M 674.074219 168.597656 C 674.074219 250.675781 737.308594 320.109375 879.046875 395.445312 L 879.046875 292.605469 C 879.046875 203.828125 855.96875 167.902344 795.808594 166.917969 C 794.402344 166.894531 793.234375 165.757812 793.234375 164.347656 C 793.234375 162.941406 794.371094 161.800781 795.78125 161.800781 L 982.398438 161.800781 C 983.804688 161.800781 984.949219 162.941406 984.949219 164.347656 C 984.949219 165.757812 983.78125 166.894531 982.371094 166.917969 C 922.160156 167.902344 897.304688 203.824219 897.304688 292.605469 L 897.304688 404.960938 C 914.667969 413.839844 933.117188 422.8125 952.671875 431.902344 C 1202.386719 547.417969 1292.421875 654.4375 1292.421875 832.808594 C 1292.421875 1080.824219 1119.148438 1250.699219 869.433594 1250.699219 C 616.316406 1250.699219 422.660156 1077.425781 422.660156 858.289062 C 422.660156 746.976562 473.308594 645.957031 553.542969 593.035156 L 283.8125 236.546875 L 283.8125 880.375 C 283.8125 969.152344 308.667969 1005.078125 368.882812 1006.058594 C 370.289062 1006.082031 371.457031 1007.222656 371.457031 1008.628906 C 371.457031 1010.035156 370.316406 1011.175781 368.90625 1011.175781 L 182.289062 1011.175781 C 180.878906 1011.175781 179.738281 1010.035156 179.738281 1008.628906 C 179.738281 1007.222656 180.90625 1006.082031 182.316406 1006.058594 C 242.476562 1005.074219 265.554688 969.152344 265.554688 880.375 L 265.554688 292.605469 C 265.554688 203.828125 242.476562 167.902344 182.316406 166.917969 C 180.90625 166.894531 179.738281 165.757812 179.738281 164.347656 C 179.738281 162.941406 180.878906 161.800781 182.289062 161.800781 L 350.480469 161.800781 C 357.941406 161.800781 364.96875 165.300781 369.464844 171.257812 L 879.046875 846.398438 L 879.046875 521.15625 C 867.109375 515.644531 854.839844 510.238281 842.253906 504.949219 C 689.367188 442.09375 580.644531 360.554688 580.644531 236.546875 C 580.644531 107.441406 701.257812 0.417969 869.433594 0.417969 C 967.960938 0.417969 1056.296875 37.792969 1107.257812 97.25 C 1120.847656 114.234375 1129.34375 119.332031 1136.136719 119.332031 C 1143.792969 119.332031 1147.308594 108.292969 1147.925781 86.210938 C 1148.042969 81.992188 1151.453125 78.5625 1155.671875 78.5625 C 1159.894531 78.5625 1163.316406 81.984375 1163.316406 86.207031 L 1163.316406 244.191406 C 1163.316406 248.410156 1159.894531 251.835938 1155.671875 251.835938 C 1151.453125 251.835938 1148.039062 248.359375 1147.925781 244.140625 C 1143.917969 92.820312 1021.601562 12.3125 877.925781 12.3125 C 748.820312 12.3125 674.074219 78.5625 674.074219 168.597656 Z M 449.839844 846.398438 C 449.839844 746.730469 492.128906 653.855469 561.097656 603.023438 L 866.183594 1006.246094 C 868.121094 1008.800781 871.90625 1008.957031 874.046875 1006.570312 L 894.273438 983.988281 C 896.226562 981.804688 897.304688 978.980469 897.304688 976.054688 L 897.304688 529.800781 C 1095.796875 626.085938 1198.988281 754.636719 1198.988281 907.554688 C 1198.988281 1082.523438 1064.789062 1206.535156 859.242188 1206.535156 C 629.910156 1206.535156 449.839844 1051.945312 449.839844 846.398438 Z M 449.839844 846.398438 " fill-opacity="1" fill-rule="evenodd"/></g><g clip-path="url(#bf9c048c78)"><path fill="#1e1e1e" d="M 763.382812 645.441406 C 876.503906 653.136719 881.683594 659.351562 888.097656 795.191406 C 894.484375 659.351562 899.6875 653.136719 1012.789062 645.441406 C 899.6875 637.746094 894.488281 631.53125 888.097656 495.691406 C 881.683594 631.53125 876.503906 637.746094 763.382812 645.441406 Z M 763.382812 645.441406 " fill-opacity="1" fill-rule="nonzero"/></g><g fill="#1e1e1e" fill-opacity="1"><g transform="translate(1.35142, 1410.112434)"><g><path d="M 99.71875 0 L 77.15625 0 L 32.65625 -59.25 L 32.65625 0 L 9.453125 0 L 9.453125 -88.25 L 32.140625 -88.25 L 76.515625 -29 L 76.515625 -88.25 L 99.71875 -88.25 Z M 99.71875 0 "/></g></g></g><g fill="#1e1e1e" fill-opacity="1"><g transform="translate(136.856355, 1410.112434)"><g><path d="M 32.65625 -88.25 L 32.65625 0 L 9.453125 0 L 9.453125 -88.25 Z M 32.65625 -88.25 "/></g></g></g><g fill="#1e1e1e" fill-opacity="1"><g transform="translate(205.304219, 1410.112434)"><g><path d="M 72.234375 -88.25 L 100.96875 -88.25 L 59.625 -51.3125 L 103.375 -0.125 L 74.875 0 L 44.125 -38.328125 L 32.65625 -27.984375 L 32.65625 0 L 9.453125 0 L 9.453125 -88.25 L 32.65625 -88.25 L 32.65625 -51.3125 Z M 72.234375 -88.25 "/></g></g></g><g fill="#1e1e1e" fill-opacity="1"><g transform="translate(333.24633, 1410.112434)"><g><path d="M 32.65625 0 L 9.453125 0 L 9.453125 -88.25 L 32.65625 -88.25 L 32.65625 -55.21875 L 74.5 -55.21875 L 74.5 -88.25 L 97.703125 -88.25 L 97.703125 0 L 74.5 0 L 74.5 -37.5625 L 32.65625 -37.5625 Z M 32.65625 0 "/></g></g></g><g fill="#1e1e1e" fill-opacity="1"><g transform="translate(466.7345, 1410.112434)"><g><path d="M 32.65625 -88.25 L 32.65625 0 L 9.453125 0 L 9.453125 -88.25 Z M 32.65625 -88.25 "/></g></g></g><g fill="#1e1e1e" fill-opacity="1"><g transform="translate(535.182344, 1410.112434)"><g><path d="M 80.9375 0 L 9.453125 0 L 9.453125 -88.25 L 32.65625 -88.25 L 32.65625 -17.90625 L 80.9375 -17.90625 Z M 80.9375 0 "/></g></g></g><g fill="#1e1e1e" fill-opacity="1"><g transform="translate(643.713226, 1410.112434)"><g/></g></g><g fill="#1e1e1e" fill-opacity="1"><g transform="translate(698.92615, 1410.112434)"><g><path d="M 28.609375 -28.609375 L 28.609375 -28.109375 C 28.609375 -26.003906 28.945312 -24.28125 29.625 -22.9375 C 30.300781 -21.59375 31.097656 -20.503906 32.015625 -19.671875 C 33.109375 -18.578125 34.410156 -17.710938 35.921875 -17.078125 C 37.441406 -16.453125 38.976562 -15.96875 40.53125 -15.625 C 42.082031 -15.289062 43.59375 -15.082031 45.0625 -15 C 46.53125 -14.914062 47.851562 -14.875 49.03125 -14.875 C 52.394531 -14.875 55.039062 -15.039062 56.96875 -15.375 C 58.90625 -15.71875 60.460938 -16.222656 61.640625 -16.890625 C 63.578125 -17.898438 65.023438 -19.242188 65.984375 -20.921875 C 66.953125 -22.609375 67.4375 -24.207031 67.4375 -25.71875 C 67.4375 -26.726562 67.078125 -27.96875 66.359375 -29.4375 C 65.648438 -30.90625 63.953125 -32.1875 61.265625 -33.28125 C 60.597656 -33.53125 59.738281 -33.800781 58.6875 -34.09375 C 57.632812 -34.394531 56.519531 -34.671875 55.34375 -34.921875 C 54.164062 -35.171875 53.007812 -35.398438 51.875 -35.609375 C 50.738281 -35.816406 49.789062 -36.007812 49.03125 -36.1875 L 36.3125 -38.203125 C 33.875 -38.535156 31.394531 -38.929688 28.875 -39.390625 C 26.351562 -39.859375 23.914062 -40.445312 21.5625 -41.15625 C 19.207031 -41.875 17.019531 -42.753906 15 -43.796875 C 12.976562 -44.847656 11.253906 -46.175781 9.828125 -47.78125 C 8.816406 -48.957031 7.742188 -50.65625 6.609375 -52.875 C 5.484375 -55.101562 4.921875 -58.109375 4.921875 -61.890625 C 4.921875 -67.023438 5.925781 -71.441406 7.9375 -75.140625 C 9.957031 -78.835938 12.984375 -81.945312 17.015625 -84.46875 C 19.203125 -85.8125 21.515625 -86.898438 23.953125 -87.734375 C 26.390625 -88.578125 28.847656 -89.226562 31.328125 -89.6875 C 33.804688 -90.15625 36.285156 -90.453125 38.765625 -90.578125 C 41.242188 -90.703125 43.617188 -90.765625 45.890625 -90.765625 C 53.867188 -90.765625 60.253906 -90.21875 65.046875 -89.125 C 69.835938 -88.03125 73.703125 -86.601562 76.640625 -84.84375 C 79.242188 -83.332031 81.34375 -81.671875 82.9375 -79.859375 C 84.539062 -78.054688 85.757812 -76.207031 86.59375 -74.3125 C 87.4375 -72.425781 87.984375 -70.554688 88.234375 -68.703125 C 88.492188 -66.859375 88.582031 -65.09375 88.5 -63.40625 L 65.046875 -63.40625 C 64.878906 -65 64.4375 -66.488281 63.71875 -67.875 C 63.007812 -69.269531 61.6875 -70.472656 59.75 -71.484375 C 58.738281 -71.984375 57.582031 -72.398438 56.28125 -72.734375 C 54.976562 -73.078125 53.675781 -73.332031 52.375 -73.5 C 51.070312 -73.664062 49.8125 -73.769531 48.59375 -73.8125 C 47.375 -73.851562 46.390625 -73.875 45.640625 -73.875 C 43.453125 -73.875 41.265625 -73.703125 39.078125 -73.359375 C 36.890625 -73.023438 35.039062 -72.398438 33.53125 -71.484375 C 32.101562 -70.554688 31.007812 -69.421875 30.25 -68.078125 C 29.5 -66.734375 29.125 -65.300781 29.125 -63.78125 C 29.125 -61.769531 29.816406 -60.28125 31.203125 -59.3125 C 32.585938 -58.34375 33.992188 -57.609375 35.421875 -57.109375 C 36.015625 -56.859375 36.707031 -56.625 37.5 -56.40625 C 38.300781 -56.195312 39.269531 -55.96875 40.40625 -55.71875 C 41.539062 -55.46875 42.925781 -55.191406 44.5625 -54.890625 C 46.195312 -54.597656 48.191406 -54.285156 50.546875 -53.953125 L 60.640625 -52.3125 C 64.585938 -51.644531 68.578125 -50.804688 72.609375 -49.796875 C 76.640625 -48.785156 80.128906 -47.1875 83.078125 -45 C 86.773438 -42.226562 89.191406 -39.097656 90.328125 -35.609375 C 91.460938 -32.117188 92.03125 -28.820312 92.03125 -25.71875 C 92.03125 -20.34375 91 -15.929688 88.9375 -12.484375 C 86.875 -9.035156 84.457031 -6.300781 81.6875 -4.28125 C 80.507812 -3.445312 79.078125 -2.628906 77.390625 -1.828125 C 75.710938 -1.023438 73.65625 -0.3125 71.21875 0.3125 C 68.78125 0.945312 65.859375 1.472656 62.453125 1.890625 C 59.054688 2.304688 55.085938 2.515625 50.546875 2.515625 C 47.015625 2.515625 43.421875 2.410156 39.765625 2.203125 C 36.109375 1.992188 32.578125 1.550781 29.171875 0.875 C 25.773438 0.207031 22.5625 -0.816406 19.53125 -2.203125 C 16.507812 -3.585938 13.863281 -5.457031 11.59375 -7.8125 C 10 -9.5 8.71875 -11.265625 7.75 -13.109375 C 6.78125 -14.960938 6.046875 -16.769531 5.546875 -18.53125 C 5.046875 -20.289062 4.726562 -22.007812 4.59375 -23.6875 C 4.46875 -25.375 4.40625 -26.847656 4.40625 -28.109375 L 4.40625 -28.609375 Z M 28.609375 -28.609375 "/></g></g></g><g fill="#1e1e1e" fill-opacity="1"><g transform="translate(821.448217, 1410.112434)"><g><path d="M 32.65625 0 L 9.453125 0 L 9.453125 -88.25 L 32.65625 -88.25 L 32.65625 -55.21875 L 74.5 -55.21875 L 74.5 -88.25 L 97.703125 -88.25 L 97.703125 0 L 74.5 0 L 74.5 -37.5625 L 32.65625 -37.5625 Z M 32.65625 0 "/></g></g></g><g fill="#1e1e1e" fill-opacity="1"><g transform="translate(954.936365, 1410.112434)"><g><path d="M 63.40625 -33.03125 L 49.796875 -66.0625 L 36.4375 -33.03125 Z M 23.0625 0 L -1.140625 0 L 38.453125 -88.25 L 61.265625 -88.25 L 100.84375 0 L 76.640625 0 L 68.953125 -17.90625 L 30.765625 -17.90625 Z M 23.0625 0 "/></g></g></g><g fill="#1e1e1e" fill-opacity="1"><g transform="translate(1080.357542, 1410.112434)"><g><path d="M 32.65625 -49.03125 L 57.234375 -49.03125 C 59.160156 -49.03125 61.257812 -49.195312 63.53125 -49.53125 C 65.800781 -49.875 67.773438 -50.882812 69.453125 -52.5625 C 70.128906 -53.238281 70.78125 -54.207031 71.40625 -55.46875 C 72.039062 -56.726562 72.359375 -58.28125 72.359375 -60.125 C 72.359375 -62.394531 71.894531 -64.222656 70.96875 -65.609375 C 70.050781 -67.003906 69.085938 -68.035156 68.078125 -68.703125 C 67.398438 -69.117188 66.554688 -69.453125 65.546875 -69.703125 C 64.546875 -69.960938 63.519531 -70.15625 62.46875 -70.28125 C 61.414062 -70.40625 60.382812 -70.488281 59.375 -70.53125 C 58.363281 -70.570312 57.566406 -70.59375 56.984375 -70.59375 L 32.65625 -70.59375 Z M 9.453125 -88.25 L 61.640625 -88.25 C 63.828125 -88.25 66.203125 -88.179688 68.765625 -88.046875 C 71.328125 -87.921875 73.890625 -87.585938 76.453125 -87.046875 C 79.015625 -86.503906 81.492188 -85.707031 83.890625 -84.65625 C 86.285156 -83.601562 88.410156 -82.148438 90.265625 -80.296875 C 92.867188 -77.691406 94.523438 -74.851562 95.234375 -71.78125 C 95.953125 -68.71875 96.3125 -65.96875 96.3125 -63.53125 C 96.3125 -60.59375 95.890625 -57.800781 95.046875 -55.15625 C 94.210938 -52.507812 92.703125 -50.09375 90.515625 -47.90625 C 89.003906 -46.394531 87.238281 -45.113281 85.21875 -44.0625 C 83.195312 -43.007812 81.179688 -42.234375 79.171875 -41.734375 L 79.171875 -41.21875 C 81.015625 -40.882812 82.859375 -40.273438 84.703125 -39.390625 C 86.554688 -38.515625 88.15625 -37.359375 89.5 -35.921875 C 90.507812 -34.828125 91.304688 -33.734375 91.890625 -32.640625 C 92.484375 -31.554688 92.90625 -30.445312 93.15625 -29.3125 C 93.40625 -28.175781 93.570312 -27.039062 93.65625 -25.90625 C 93.75 -24.769531 93.835938 -23.65625 93.921875 -22.5625 L 94.546875 -12.609375 C 94.710938 -10.421875 95.003906 -8.359375 95.421875 -6.421875 C 95.847656 -4.492188 96.773438 -2.351562 98.203125 0 L 73.625 0 C 72.195312 -1.9375 71.3125 -3.742188 70.96875 -5.421875 C 70.632812 -7.097656 70.382812 -9.03125 70.21875 -11.21875 L 69.84375 -18.53125 C 69.675781 -21.21875 69.210938 -23.441406 68.453125 -25.203125 C 67.691406 -26.972656 66.765625 -28.320312 65.671875 -29.25 C 64.410156 -30.34375 62.707031 -31.140625 60.5625 -31.640625 C 58.425781 -32.140625 56.347656 -32.390625 54.328125 -32.390625 L 32.65625 -32.390625 L 32.65625 0 L 9.453125 0 Z M 9.453125 -88.25 "/></g></g></g><g fill="#1e1e1e" fill-opacity="1"><g transform="translate(1209.686168, 1410.112434)"><g><path d="M 32.65625 -65.671875 L 31.765625 -65.671875 L 32.65625 -58.234375 L 32.65625 0 L 9.453125 0 L 9.453125 -88.25 L 42.234375 -88.25 L 67.1875 -24.203125 L 67.828125 -24.203125 L 92.78125 -88.25 L 125.5625 -88.25 L 125.5625 0 L 102.359375 0 L 102.359375 -58.234375 L 103.25 -65.671875 L 102.359375 -65.671875 L 75.890625 0 L 59.125 0 Z M 32.65625 -65.671875 "/></g></g></g><g fill="#1e1e1e" fill-opacity="1"><g transform="translate(1371.030777, 1410.112434)"><g><path d="M 63.40625 -33.03125 L 49.796875 -66.0625 L 36.4375 -33.03125 Z M 23.0625 0 L -1.140625 0 L 38.453125 -88.25 L 61.265625 -88.25 L 100.84375 0 L 76.640625 0 L 68.953125 -17.90625 L 30.765625 -17.90625 Z M 23.0625 0 "/></g></g></g></g></g></svg>